<svg width="20" height="21" viewBox="0 0 20 21" fill="none" xmlns="http://www.w3.org/2000/svg"><path d="M19.527 8.474h-.78v-.04H10.02v3.878h5.48a5.815 5.815 0 0 1-11.296-1.94 5.817 5.817 0 0 1 5.817-5.816c1.483 0 2.832.56 3.859 1.473l2.742-2.742A9.65 9.65 0 0 0 10.021.678C4.667.678.326 5.018.326 10.373c0 5.354 4.34 9.695 9.695 9.695 5.354 0 9.695-4.341 9.695-9.695 0-.65-.067-1.285-.189-1.899" fill="#FFC107"/><path d="M10.02 20.068a9.65 9.65 0 0 0 6.5-2.517l-3-2.54a5.77 5.77 0 0 1-3.5 1.179 5.81 5.81 0 0 1-5.468-3.852L1.39 14.774c1.605 3.14 4.863 5.294 8.63 5.294" fill="#4CAF50"/><path d="M19.527 8.474h-.78v-.04H10.02v3.878h5.48a5.84 5.84 0 0 1-1.981 2.7h.001l3 2.539c-.212.193 3.196-2.33 3.196-7.178 0-.65-.067-1.285-.189-1.899" fill="#1976D2"/><path d="m1.444 5.86 3.185 2.336a5.81 5.81 0 0 1 5.392-3.64c1.483 0 2.832.56 3.859 1.473l2.742-2.742A9.65 9.65 0 0 0 10.021.678 9.69 9.69 0 0 0 1.444 5.86" fill="#FF3D00"/></svg>